<svg id="Layer_1" data-name="Layer 1" xmlns="http://www.w3.org/2000/svg" viewBox="0 0 278 60"><defs><style>.cls-1{fill:#616468;}.cls-2{fill:#5a5c60;}</style></defs><path class="cls-1" d="M236,50.4v-29H223.1c-.2-3-.3-5.2-.5-8.2l33.6-.3V21H244.3V50.1Z"/><path class="cls-2" d="M186.7,50.6l-8-.3V13.4l7-.5L204,36.2V13.4h8.1V50.2h-7.4L186.9,26.7c0,7.1.1,13-.1,18.8C186.7,47.2,186.7,50.6,186.7,50.6Z"/><path class="cls-1" d="M166.6,50.1H138.3V13.3h28c.1,2.3.3,4.5.5,7.6H147V42.3h19.6Z"/><path class="cls-2" d="M52.9,50.5a28.7,28.7,0,0,1-10.1.4C35.1,49.3,30.6,44.6,28,37.8c-4.4-11.5,4.5-24.4,17.1-25,6.7-.3,12.9.4,17.6,6.6l-5,5.6c-4.3-3.2-8.9-5.2-14.1-3.9a8.1,8.1,0,0,0-4.3,2.5,12.3,12.3,0,0,0-3.4,10.9c.7,3.8,2.6,5.8,7.2,7.6a10.9,10.9,0,0,0,8.5-.2L58,39l4.8,5.1C59.2,48.6,57.1,49.4,52.9,50.5Z"/><path class="cls-2" d="M92.4,50.1l-8.2.2V35.6L68.5,13.8c1.7-.3,2.9-.6,4.1-.7h4.8L88.2,27.4c3.4-4.7,6.6-9.2,9.9-14h8.7c-3.3,8.7-10.6,14.4-14.4,22.3Z"/><path class="cls-1" d="M124.5,50.1l-8.3.3V13.5l6.8-.6c.6.6,1,.7,1,.9C124.2,25.9,124.3,38,124.5,50.1Z"/><path class="cls-1" d="M153.9,28.8l.3-.3a4.9,4.9,0,0,1,7-.6h.2a5,5,0,0,1-.1,7.1l-.2.3a5,5,0,0,1-6.4.6.1.1,0,0,1-.1-.1A4.9,4.9,0,0,1,153.9,28.8Z"/></svg>