<svg id="Layer_1" data-name="Layer 1" xmlns="http://www.w3.org/2000/svg" viewBox="0 0 96.2 60"><defs><style>.cls-1{fill:#030303;}.cls-2{fill:#c51318;}.cls-3{fill:#aa2b31;}.cls-4{fill:#a92730;}.cls-5{fill:#aa2b32;}.cls-6{fill:#a92f34;}.cls-7{fill:#a62b30;}.cls-8{fill:#a7262e;}.cls-9{fill:#a62a30;}.cls-10{fill:#97252b;}.cls-11{fill:#010101;}.cls-12{fill:#a62529;}.cls-13{fill:#a8272e;}.cls-14{fill:#a8262c;}</style></defs><path class="cls-1" d="M35,11.2h5.2c.5,0,.7.1.5.6s-.1,2-.7,2.6-1.7.1-2.6.1-1.9,0-2.3,1.9c-1.4,6.5-2.9,13-4.3,19.6-.1.1-.1.3-.2.5s0,.6.6.6,2.1.1,3.1,0,.7.2.6.7a15.5,15.5,0,0,0-.4,2.1.7.7,0,0,1-.8.6H23.2c-.5,0-.6-.1-.4-.6a15.5,15.5,0,0,0,.4-2.1c.1-.5.3-.7.8-.7h3.1c.7.1.9-.2,1-.8,1.1-4.8,2.2-9.5,3.2-14.3.5-2.1.9-4.1,1.4-6.2s.3-1.3-1-1.3H29.2c-.6,0-.9-.1-.6-.8a11.8,11.8,0,0,0,.4-2c.1-.5.3-.6.8-.6Z"/><path class="cls-2" d="M50.4,6.6,49.5,11C47.3,21.9,45.2,32.8,43,43.7a1.3,1.3,0,0,0-.1.6,1.2,1.2,0,0,1-1.4,1.1,1.4,1.4,0,0,1-1.2-1.6,18.5,18.5,0,0,1,.4-2.3c1.7-8.4,3.4-16.8,5-25.1L47.8,6.2c.1-.6.2-1.1.9-1.2a1.6,1.6,0,0,1,1.4.5A1.8,1.8,0,0,1,50.4,6.6Z"/><path class="cls-3" d="M49.8,50.4V48.3c0-.2,0-.5.3-.5s.5-.2.5.2.3.2.4.1a1.3,1.3,0,0,1,1.4-.4,1.3,1.3,0,0,1,.7,1.4c.1,1.1.1,2.2.1,3.3s0,.6-.4.7-.4-.4-.4-.6V49.8c0-.5.1-1.1-.6-1.2s-1.1.6-1.2,1.3v2.7c0,.3,0,.4-.3.5a.5.5,0,0,1-.5-.5V50.4Z"/><path class="cls-4" d="M45.4,49.9V47.3c0-.3,0-.6.4-.6h2.4a.4.4,0,0,1,.4.4c0,.4-.2.4-.5.4H46.7a.5.5,0,0,0-.6.6v.8c0,.4.2.5.6.5h1c.3,0,.5.1.5.3a.4.4,0,0,1-.4.4h-.3c-.5.1-1.1-.2-1.3.2s-.1,1.1-.1,1.7.3.4.6.4a2.9,2.9,0,0,1,1.3,0c.3,0,.8-.2.7.3s-.4.4-.6.4h-2c-.5,0-.8-.1-.8-.7a20.1,20.1,0,0,0,.1-2.5Z"/><path class="cls-5" d="M23.9,50.1V48.5c0-.5,0-.9-.8-.8a.4.4,0,0,1-.4-.4c-.1-.4.2-.4.5-.4h2.2c.2,0,.4,0,.5.3s-.1.5-.4.5-.8.4-.8,1v2.8c0,.6,0,1,.7.9s.5.1.5.4-.2.3-.5.3H23.2c-.2,0-.5,0-.5-.3s.2-.4.5-.4.7-.2.7-.8V50.1Z"/><path class="cls-6" d="M66.3,53.2c-1.2,0-1.6-.3-1.7-1.4a17.7,17.7,0,0,1-.1-2.3c0-.5.1-1-.6-.9a.3.3,0,0,1-.3-.3c0-.2,0-.5.2-.4s.8-.3.7-.8a.4.4,0,1,1,.8,0c-.1.8.4.7.9.7h.5c.3.1.4.2.4.5s-.2.3-.4.3h-.1c-.4,0-.9-.2-1.2.2s-.1.8-.1,1.3v1c0,1.2.1,1.3,1.3,1.3s.6-.1.6.3-.4.4-.6.5Z"/><path class="cls-7" d="M68.8,55c-.3,0-.5,0-.6-.3s.1-.3.4-.4a1.5,1.5,0,0,0,.9-2c-.4-1.3-.9-2.6-1.3-4s-.3-.4.1-.5a.4.4,0,0,1,.6.3l.9,2.9.3.4a.8.8,0,0,0,.2-.4l.8-2.3c.1-.2.1-.4.2-.6s.3-.5.6-.3,0,.3,0,.5-1.1,3.1-1.6,4.7a5.9,5.9,0,0,1-.6,1.4A1,1,0,0,1,68.8,55Z"/><path class="cls-8" d="M55.3,50.4v-1c0-.5,0-.9-.6-.8s-.4-.1-.4-.4a.3.3,0,0,1,.3-.3c.6,0,.7-.4.7-.9s.2-.3.4-.3a.3.3,0,0,1,.3.3c-.1.9.4.9,1.1.9h.4c.2,0,.3.1.3.4a.3.3,0,0,1-.3.3h-.2c-1.3.1-1.3.1-1.3,1.3v1.4c.1,1,.2,1.1,1.1,1.2s.7-.3.8.2-.5.4-.8.5-1.7-.3-1.8-1.5V50.4Z"/><path class="cls-9" d="M61.3,50.4v1.9c0,.3.2.7-.3.7s-.4-.4-.4-.6v-3c0-.6-.1-1-.9-1s-.6.2-.6-.3.4-.4.7-.4c1.8,0,1.4-.1,1.5,1.4v1.3Z"/><path class="cls-10" d="M61.4,46c0,.3-.1.5-.5.5s-.4-.3-.5-.6.1-.6.5-.6S61.4,45.6,61.4,46Z"/><path class="cls-11" d="M73.3,18.2a16.4,16.4,0,0,0-2.8-7A8.4,8.4,0,0,0,58.8,8.8,13.7,13.7,0,0,0,55,12.2c-3.3,4.2-4.7,9-5,14.4a19.6,19.6,0,0,0,.5,4.8,14.5,14.5,0,0,0,3.4,7.3,8.1,8.1,0,0,0,10.1,2A14.1,14.1,0,0,0,69.3,36,24.5,24.5,0,0,0,73.3,18.2Zm-2.8,6.4c-.1.7-.4.8-1.1.8H57c-.5,0-.8.1-.8.7a11.3,11.3,0,0,0,.6,4.1,4.3,4.3,0,0,0,3.4,3.1,4.6,4.6,0,0,0,4.6-1.8,7.9,7.9,0,0,0,1.4-2.3c.3-.6.6-.8,1.1-.6l2,.4c.3,0,.6.1.4.5-1.3,3.4-3.2,6.2-7,7s-8.4-1.1-9.3-5.6a18.4,18.4,0,0,1,3-15.4A8.2,8.2,0,0,1,64.6,12a6.6,6.6,0,0,1,4.7,3.4,12.1,12.1,0,0,1,1.3,4.2A28,28,0,0,1,70.5,24.6Z"/><path class="cls-12" d="M30.1,45.6c-.5,0-.3.5-.3.8a5.7,5.7,0,0,0,0,1.3c0,.3,0,.5-.5.3a1.2,1.2,0,0,0-1.9.8,4.7,4.7,0,0,0-.2,3.3c.4,1.2,1.2,1.5,2.2.6s.3-.4.4,0a.4.4,0,0,0,.4.4c.4-.1.3-.4.3-.6V49.3h0V46.4C30.5,46.1,30.7,45.5,30.1,45.6Zm-.9,6.6c-.5.4-1,.3-1.2-.3a3.3,3.3,0,0,1,.1-2.9.7.7,0,0,1,.8-.5c.4.1.8.4.8.8a3.8,3.8,0,0,1,.1,1C29.8,51.1,29.8,51.7,29.2,52.2Z"/><path class="cls-13" d="M34.6,52.4a1.7,1.7,0,0,1-1.2,0,1.3,1.3,0,0,1-1-1.3c.2-.7.7-.2,1.1-.3h.2c1.6.1,1.6.1,1.3-1.4s-.6-1.4-1.3-1.5a1.6,1.6,0,0,0-1.7,1,3.7,3.7,0,0,0-.1,3.4,2.1,2.1,0,0,0,2.9.8c.3-.1.3-.3.3-.5S34.8,52.3,34.6,52.4Zm-1.2-3.9a1,1,0,0,1,.9,1.1c0,.8-.7.3-1,.5s-.9.2-.9-.5A1.2,1.2,0,0,1,33.4,48.5Z"/><path class="cls-14" d="M39.6,52.5c-.4-.2-.3-.7-.3-1s0-1.7-.1-2.5-.4-1.2-1.4-1.2-.7.1-1.1.2a.5.5,0,0,0-.2.6c.1.4.3.1.5.1a1.6,1.6,0,0,1,1-.2c.5.2.5.5.5.9s-.2.5-.5.6a2,2,0,0,0-1.3.4,1.7,1.7,0,0,0-.4,2.1,1.1,1.1,0,0,0,1.5.6c.5-.3.9-.5,1.4,0s.5.1.6-.1S39.8,52.6,39.6,52.5Zm-1-1.2c-.1.7-.5,1.2-1,1.1s-.8-.4-.7-.8a1.1,1.1,0,0,1,1.2-1.1C38.5,50.5,38.6,50.6,38.6,51.3Z"/><path class="cls-11" d="M62.1,22H57.5c-.5,0-.6-.1-.5-.7a8.4,8.4,0,0,1,2.5-4.6,7.6,7.6,0,0,1,1.9-1.2A4.3,4.3,0,0,1,67,18.4a13.5,13.5,0,0,1,.4,2.9c0,.5-.2.7-.8.7Z"/></svg>