<svg id="Layer_1" data-name="Layer 1" xmlns="http://www.w3.org/2000/svg" viewBox="0 0 278 60"><defs><style>.cls-1,.cls-2{fill:#e34d25;}.cls-2,.cls-3{fill-rule:evenodd;}.cls-3{fill:#efa523;}.cls-4{fill:#333;}.cls-5{fill:#fff;}</style></defs><path class="cls-1" d="M65,6.8H59.2V35.1H65Z"/><path class="cls-2" d="M84.9,35.1H79.3V22.7c0-2,.2-4.1-1.5-4.4a2.4,2.4,0,0,0-1.4.2c-1.3.7-1.3,2.1-1.3,4.1V35.1H69.6c0-6.5.2-13.5-.2-19.7H75c0,.6.1,1.3.1,1.9h.1c.7-.8,1-1.5,2.1-2,2.6-1.1,5.7-.1,6.8,1.7s.8,3.8.8,6.1Z"/><path class="cls-2" d="M104.2,35.1H98.7V22.7c0-1.9.1-4.1-1.5-4.4a2.5,2.5,0,0,0-1.2.1c-1.5.6-1.5,2.1-1.5,4.2V35.1H88.9V21.9c0-1.9.3-5-.2-6.5h5.6c.1.6.1,1.3.2,2h0c.7-.8,1.1-1.6,2.2-2,2.7-1.1,5.8,0,6.8,1.8s.7,3.7.7,6Z"/><path class="cls-3" d="M156.5,6.8h5.6v4.7h-5.6Z"/><path class="cls-3" d="M218,20.8h-3.7a3.7,3.7,0,0,1-1.5-.1,2.1,2.1,0,0,0-1.3-2.8c-1.3-.4-3,.5-2.6,1.9s1.9,1.9,2.9,2.5c2.7,1.6,8,3.5,6.9,8.5a3.6,3.6,0,0,1-.7,1.7c-.9,1.6-2.7,2.3-4.8,2.7l-1.8.2a12.2,12.2,0,0,1-3.3-.2,5.6,5.6,0,0,1-4.5-6.6H209c0,1.6.3,3.1,1.6,3.5s3.5-.9,2.8-2.5-3.4-2.8-5.1-3.8a20.1,20.1,0,0,1-2.7-1.7,4.4,4.4,0,0,1-1.9-4.6c.2-.4.3-.9.5-1.4,1.3-2.9,6.2-4.1,10.3-2.8C216.9,16,218.1,17.6,218,20.8Z"/><path class="cls-3" d="M152.7,35.1h-5.6V22.7c0-1.9.2-4.1-1.4-4.4a2,2,0,0,0-1.3.2c-1.4.6-1.5,2.1-1.5,4.1V35.1h-5.5V22.7c0-1.9.2-4.1-1.5-4.4a2,2,0,0,0-1.3.2c-1.4.6-1.4,2.1-1.4,4.1V35.1h-5.6c0-6.5.1-13.4-.1-19.7H133c.1.6.1,1.3.2,2h0c.7-2,4.2-3,6.8-2a4.9,4.9,0,0,1,2.7,2.6h0c1.1-3.3,7-4.2,9.1-1.2s.9,3.8.9,6.3Z"/><path class="cls-3" d="M181.3,35.1h-5.6V22.7c0-2,.2-4.1-1.4-4.4a2.6,2.6,0,0,0-1.5.2c-1.3.7-1.3,2.1-1.3,4.1V35.1H166c0-6.5.1-13.5-.2-19.7h5.6a5.5,5.5,0,0,0,.2,1.9h0c.7-.8,1-1.5,2.1-2,2.6-1.1,5.8-.1,6.8,1.7s.8,3.8.8,6.1Z"/><path class="cls-3" d="M156.5,15.4h5.6V35.1h-5.6Z"/><path class="cls-3" d="M200.4,32.1V6.8H195V17h-.1c-.7-1.6-4.2-2.8-6.6-1.8a4.8,4.8,0,0,0-2.8,3.5c-1,3.1-1,10.9.1,13.8a5.1,5.1,0,0,0,1.9,2.2,6.1,6.1,0,0,0,2.7.8,6.3,6.3,0,0,0,2.7-.4,5.8,5.8,0,0,0,2-1.8h0c.1.6.1,1.3.2,1.9h5.4C200.5,34.1,200.4,33.1,200.4,32.1Zm-5.5-7v2.5c-.2,1.4,0,2.7-.5,3.7l-.6.6a1.6,1.6,0,0,1-.9.3c-2.6.5-2.2-2.1-2.5-4.1V25.5c0-2.3-.1-5.2.9-6.5s.7-.4,1.2-.6h.9a1.8,1.8,0,0,1,.7.5C195.1,20.3,194.9,22.8,194.9,25.1Z"/><path class="cls-2" d="M113.7,15.1c-5.8,1.1-6.3,6.5-5.8,12.6.2,2.8.9,5.4,2.7,6.6s10.9,2.8,12.8-2.9c1.1-3.5,1.6-12.6-2-15.1A10.4,10.4,0,0,0,113.7,15.1Z"/><path class="cls-4" d="M60.6,47v3.7H59.3V40.8h2.9a4.1,4.1,0,0,1,1.6.2,2.7,2.7,0,0,1,1.2.6,3.6,3.6,0,0,1,.7,1,5,5,0,0,1,.2,1.2,2.8,2.8,0,0,1-.3,1.3,2.3,2.3,0,0,1-.7,1,4.1,4.1,0,0,1-1.1.7l-1.6.2Zm0-1.1h2.6a1.8,1.8,0,0,0,.7-.5,1.5,1.5,0,0,0,.5-.6,1.4,1.4,0,0,0,.1-.9,1.2,1.2,0,0,0-.1-.8,2.1,2.1,0,0,0-.4-.6,3,3,0,0,0-1.8-.6H60.6Z"/><path class="cls-4" d="M70.1,43.6l1.4.2a2.5,2.5,0,0,1,1,.8,2.6,2.6,0,0,1,.7,1.1,5.1,5.1,0,0,1,0,3,2.6,2.6,0,0,1-.7,1.1,2.3,2.3,0,0,1-1,.7,3.4,3.4,0,0,1-2.8,0,2.3,2.3,0,0,1-1-.7,2.6,2.6,0,0,1-.7-1.1,5.1,5.1,0,0,1,0-3,2.6,2.6,0,0,1,.7-1.1,2.5,2.5,0,0,1,1-.8Zm0,6.2H71c.2-.2.5-.3.6-.6a3.3,3.3,0,0,0,.6-1.9,3.6,3.6,0,0,0-.6-2,1.5,1.5,0,0,0-.6-.5l-.9-.2-.9.2a1.8,1.8,0,0,0-.7.5,3.2,3.2,0,0,0-.3.9,3.6,3.6,0,0,0-.2,1.1,4.3,4.3,0,0,0,.2,1.1,1.9,1.9,0,0,0,.3.8,1.2,1.2,0,0,0,.7.5A1.5,1.5,0,0,0,70.1,49.8Z"/><path class="cls-4" d="M74.2,43.7h1.3l1.4,4.5a.7.7,0,0,0,.1.5v.5l.2-.5a4.3,4.3,0,0,0,.1-.5l1.5-4.5c0-.1.1-.1.1-.2h1c0,.1.1.1.1.2l1.5,4.5a.7.7,0,0,0,.1.5c0,.2.1.3.1.5s.1-.3.1-.5.1-.3.1-.5l1.4-4.5a.1.1,0,0,1,.1-.1h1.2l-2.3,7h-1a.2.2,0,0,1-.2-.2l-1.6-4.8a.4.4,0,0,0-.1-.3v-.3a.4.4,0,0,0-.1.3c0,.1-.1.2-.1.3l-1.6,4.8a.1.1,0,0,1-.1.1.1.1,0,0,1-.1.1h-1Z"/><path class="cls-4" d="M88.6,43.6a2,2,0,0,1,1.1.2,2.1,2.1,0,0,1,1,.6l.6,1a5.9,5.9,0,0,1,.2,1.3.6.6,0,0,1-.1.4.1.1,0,0,1-.1.1H86.5a3.6,3.6,0,0,0,.2,1.1,4.1,4.1,0,0,0,.5.9c.1.2.4.3.6.5h1.7l.6-.2.4-.3h.3c.1,0,.1,0,.1.1H91l.4.4-.6.5-.6.3-.8.2h-.8a3.1,3.1,0,0,1-1.3-.3,2.6,2.6,0,0,1-1.1-.7,2.3,2.3,0,0,1-.6-1.2,4.1,4.1,0,0,1-.3-1.6,5.9,5.9,0,0,1,.2-1.3,4.1,4.1,0,0,1,.7-1.1,3.9,3.9,0,0,1,1-.8Zm0,.9h-.8l-.6.4a2,2,0,0,0-.6,1.4h3.8c0-.2-.1-.5-.1-.8l-.4-.6a1,1,0,0,0-.5-.4Z"/><path class="cls-4" d="M93.3,50.7v-7h.9l.2.2v1.1a3.1,3.1,0,0,1,.9-1.1l.9-.4a1.4,1.4,0,0,1,.9,0l.4.2v.9c0,.1-.1.1-.1.2h-.1c-.2,0-.3,0-.3-.1h-.6a2,2,0,0,0-1.1.3,2.6,2.6,0,0,0-.7,1.1v4.5Z"/><path class="cls-4" d="M100.7,41.5a.4.4,0,0,1-.1.3c0,.1-.1.2-.1.3l-.3.2h-.7a1.2,1.2,0,0,1-.5-.5v-.7c.1-.1.1-.2.2-.2l.3-.2h.7l.3.2a.3.3,0,0,1,.1.2A.6.6,0,0,1,100.7,41.5Zm-.3,2.2v7H99.2v-7Z"/><path class="cls-4" d="M102.8,50.7v-7h1a.3.3,0,0,1,.1.2v.8a3.9,3.9,0,0,1,1-.8,3.1,3.1,0,0,1,1.3-.3,1.6,1.6,0,0,1,1,.2l.8.5a2,2,0,0,1,.4.8,5.2,5.2,0,0,1,.2,1.1v4.5h-1.3V46.2a1.8,1.8,0,0,0-.3-1.2l-.5-.4c-.2,0-.4-.1-.6,0a1.6,1.6,0,0,0-1,.2,2.2,2.2,0,0,0-.9.7v5.2Z"/><path class="cls-4" d="M113.1,43.6h.9a1.1,1.1,0,0,1,.7.3h1.9v.4a.3.3,0,0,1-.3.3h-.8a2.6,2.6,0,0,1,0,2l-.5.7-.8.4-1.1.2h-.9a.5.5,0,0,0-.4.3c0,.1-.1.2-.1.3s0,.1.1.2.1.1.1.2l.6.2h2.4c.3.1.6.1.8.3a1,1,0,0,1,.5.4,1.3,1.3,0,0,1,.2.8,2.4,2.4,0,0,1-.2.9l-.6.8-1.1.5a3,3,0,0,1-1.3.2h-1.4l-1-.4-.5-.6a2.5,2.5,0,0,1-.2-.7,1.2,1.2,0,0,1,.3-.9,2.4,2.4,0,0,1,.9-.6l-.5-.4a1.3,1.3,0,0,1-.1-.6v-.3l.2-.3a1.3,1.3,0,0,1,.7-.6,1.8,1.8,0,0,1-.9-.8,1.4,1.4,0,0,1-.2-1.1,1.5,1.5,0,0,1,.2-.9,1.8,1.8,0,0,1,.5-.7l.8-.5Zm2.2,7.4a.8.8,0,0,0-.2-.4l-.3-.2-.6-.2h-2.1a1.8,1.8,0,0,0-.7.5,1.1,1.1,0,0,0-.2.6c0,.2,0,.3.1.4a.8.8,0,0,0,.4.4l.6.2h1.8l.6-.2c.2-.1.3-.3.4-.4A1.4,1.4,0,0,0,115.3,51Zm-2.2-3.7h.7l.5-.3c.1-.2.2-.3.2-.5a1.1,1.1,0,0,0,.1-.5,1.3,1.3,0,0,0-.1-.6c0-.2-.1-.3-.3-.5a2.2,2.2,0,0,0-2.2,0c-.2.2-.3.3-.3.5a1.3,1.3,0,0,0-.1.6,1.1,1.1,0,0,0,.1.5l.3.5.5.3Z"/><path class="cls-4" d="M123.1,50.8h-.7l-.6-.4a1.9,1.9,0,0,1-.5-1.3V44.7h-1c-.1-.1-.1-.1-.1-.2V44l1.2-.2.3-2.2a1990328647664.2,1990328647664.2,0,0,1,.2-.2h.7v2.4h2v.9h-2v4.6c0,.1.1.2.2.3h1.5c.1,0,.1,0,.1.1l.4.6-.8.4Z"/><path class="cls-4" d="M126.3,50.7V40.5h1.2v4.1l1-.7a3.1,3.1,0,0,1,1.3-.3,2.2,2.2,0,0,1,1.7.7,2.2,2.2,0,0,1,.5.8,4.5,4.5,0,0,1,.1,1.1v4.5h-1.2V46.2a2.7,2.7,0,0,0-.3-1.2l-.6-.4c-.1,0-.4-.1-.6,0a1.8,1.8,0,0,0-1,.2l-.9.7v5.2Z"/><path class="cls-4" d="M137,43.6a2.5,2.5,0,0,1,1.2.2,2.4,2.4,0,0,1,.9.6,3.3,3.3,0,0,1,.6,1,5.9,5.9,0,0,1,.2,1.3.6.6,0,0,1-.1.4.1.1,0,0,1-.1.1h-4.8a3.6,3.6,0,0,0,.2,1.1,4.1,4.1,0,0,0,.5.9l.7.5H138l.5-.2.4-.3h.6l.3.4-.5.5-.7.3-.8.2h-.7a3.5,3.5,0,0,1-1.4-.3,2.3,2.3,0,0,1-1-.7,2.4,2.4,0,0,1-.7-1.2,4.1,4.1,0,0,1-.3-1.6,3.1,3.1,0,0,1,.3-1.3,2.4,2.4,0,0,1,.6-1.1,3.9,3.9,0,0,1,1-.8Zm0,.9h-.7l-.7.4a2.5,2.5,0,0,0-.6,1.4h3.8a2.5,2.5,0,0,0-.1-.8l-.4-.6a1,1,0,0,0-.5-.4Z"/><path class="cls-4" d="M153.4,45.7a5.2,5.2,0,0,1-.4,2.1,3.6,3.6,0,0,1-1,1.5,3.1,3.1,0,0,1-1.5,1,4.5,4.5,0,0,1-2,.4h-3.7V40.8h3.7a6.4,6.4,0,0,1,2,.3,5.6,5.6,0,0,1,1.5,1,3.9,3.9,0,0,1,1,1.6A4.8,4.8,0,0,1,153.4,45.7Zm-1.4,0a8.8,8.8,0,0,0-.2-1.6,4.7,4.7,0,0,0-.7-1.2,5,5,0,0,0-1.2-.8,3.2,3.2,0,0,0-1.4-.2h-2.4v7.7h2.4a3.2,3.2,0,0,0,1.4-.3,2.9,2.9,0,0,0,1.2-.7,7.5,7.5,0,0,0,.7-1.2A9.9,9.9,0,0,0,152,45.7Z"/><path class="cls-4" d="M156.7,41.5v.3l-.2.3-.3.2h-.7a.7.7,0,0,1-.4-.5.4.4,0,0,1-.1-.3.8.8,0,0,1,.1-.4.3.3,0,0,1,.1-.2l.3-.2h.7l.3.2c.1,0,.1.1.2.2Zm-.2,2.2v7h-1.3v-7Z"/><path class="cls-4" d="M161.2,43.6h.9a1.1,1.1,0,0,1,.7.3h1.9v.4a.3.3,0,0,1-.3.3h-.8a1.9,1.9,0,0,1,.3,1,3.6,3.6,0,0,1-.2,1l-.6.7a2,2,0,0,1-.8.4l-1.1.2h-.9q-.2,0-.3.3a.4.4,0,0,0-.1.3c-.1.1,0,.1,0,.2s.1.1.2.2l.5.2h2.5c.2.1.5.1.7.3a1,1,0,0,1,.5.4.9.9,0,0,1,.2.8,1.3,1.3,0,0,1-.2.9,2.4,2.4,0,0,1-.6.8l-1.1.5a3,3,0,0,1-1.3.2h-1.4l-.9-.4a1.7,1.7,0,0,1-.6-.6,2.5,2.5,0,0,1-.2-.7,1.2,1.2,0,0,1,.3-.9,2.4,2.4,0,0,1,.9-.6c-.1-.1-.3-.2-.4-.4a.7.7,0,0,1-.2-.6v-.3l.2-.3.3-.3.4-.3a1.6,1.6,0,0,1-.8-.8,2,2,0,0,1-.3-1.1,1.5,1.5,0,0,1,.2-.9,1.8,1.8,0,0,1,.5-.7l.9-.5Zm2.2,7.4a.6.6,0,0,0-.1-.4l-.4-.2-.6-.2h-2.1a1.8,1.8,0,0,0-.7.5,1.1,1.1,0,0,0-.2.6c0,.2,0,.3.1.4a.8.8,0,0,0,.4.4l.6.2h1.8l.6-.2.5-.4A1.3,1.3,0,0,0,163.4,51Zm-2.2-3.7h.7l.5-.3.3-.5a4.3,4.3,0,0,1,.1-.5c0-.2-.1-.4-.1-.6l-.3-.5a2.7,2.7,0,0,0-1.2-.3,2,2,0,0,0-1.1.3l-.3.5a1.3,1.3,0,0,0-.1.6,1.1,1.1,0,0,0,.1.5l.3.5.5.3Z"/><path class="cls-4" d="M167.8,41.5a.4.4,0,0,1-.1.3c0,.1-.1.2-.2.3s-.1.1-.2.2h-.7a1.2,1.2,0,0,1-.5-.5v-.7c.1-.1.1-.2.2-.2l.3-.2h.7a19903286476580.8,19903286476580.8,0,0,1,.4.4A.6.6,0,0,1,167.8,41.5Zm-.3,2.2v7h-1.2v-7Z"/><path class="cls-4" d="M172.1,50.8h-.7l-.6-.4a1.9,1.9,0,0,1-.5-1.3V44.7h-1c-.1-.1-.1-.1-.1-.2V44l1.2-.2.3-2.2a.1.1,0,0,1,.1-.1c0-.1.1-.1.2-.1h.6v2.4h2v.9h-2v4.6l.2.3h1.5c.1,0,.1,0,.1.1l.4.6-.8.4Z"/><path class="cls-4" d="M180.5,50.7h-.9a.1.1,0,0,1-.1-.1h0l-.2-.7-.5.5-.6.3-.6.2h-1.5l-.6-.4a1,1,0,0,1-.4-.5,2.9,2.9,0,0,1-.2-.9,1.3,1.3,0,0,1,.3-.8,2.3,2.3,0,0,1,.7-.7l1.3-.4a7.5,7.5,0,0,1,2.1-.2v-.6a1.7,1.7,0,0,0-.4-1.2,1,1,0,0,0-.5-.4c-.1,0-.3-.1-.5,0a1.1,1.1,0,0,0-.8.1l-.5.2-.4.3h-.7l-.2-.4a3.4,3.4,0,0,1,1.2-.9,3.9,3.9,0,0,1,1.5-.2,2.2,2.2,0,0,1,1.1.2,1.8,1.8,0,0,1,.7.5,2.2,2.2,0,0,1,.5.8,4.3,4.3,0,0,1,.2,1.1Zm-3.2-.8h.6l.5-.2.4-.3.5-.4V47.5l-1.5.2-1,.2-.5.4a1.4,1.4,0,0,0-.2.6,4.3,4.3,0,0,1,.1.5l.3.3.3.2Z"/><path class="cls-4" d="M183.9,40.5V50.7h-1.2V40.5Z"/><path class="cls-4" d="M190.4,40.8l.2.2,5.7,7.5V40.8h1.2v9.9h-1c-.1,0-.1-.1-.2-.2L190.6,43v7.7h-1.2V40.8h1Z"/><path class="cls-4" d="M202.5,43.6a2,2,0,0,1,1.1.2,2.1,2.1,0,0,1,1,.6l.6,1a5.9,5.9,0,0,1,.2,1.3.6.6,0,0,1-.1.4.1.1,0,0,1-.1.1h-4.8a3.6,3.6,0,0,0,.2,1.1,4.1,4.1,0,0,0,.5.9c.1.2.4.3.6.5h1.7l.6-.2.4-.3h.3c.1,0,.1,0,.1.1h.1l.4.4-.6.5-.6.3-.8.2h-.8a3.1,3.1,0,0,1-1.3-.3,2.6,2.6,0,0,1-1.1-.7,2.3,2.3,0,0,1-.6-1.2,4.1,4.1,0,0,1-.3-1.6,5.9,5.9,0,0,1,.2-1.3,4.1,4.1,0,0,1,.7-1.1,3.9,3.9,0,0,1,1-.8Zm0,.9h-.8l-.6.4a2,2,0,0,0-.6,1.4h3.8c0-.2-.1-.5-.1-.8l-.4-.6a1,1,0,0,0-.5-.4Z"/><path class="cls-4" d="M208.7,47.1l-2.3-3.4h1.4c0,.1.1.1.1.2l1.7,2.6c.1-.1.1-.3.2-.4l1.5-2.2c0-.1.1-.1.1-.2h1.3L210.4,47l2.4,3.7h-1.4a.3.3,0,0,1-.1-.2l-1.8-2.7c0,.1-.1.2-.1.3l-1.7,2.4a.3.3,0,0,1-.1.2h-1.3Z"/><path class="cls-4" d="M216.4,50.8h-.7l-.6-.4a1.8,1.8,0,0,1-.4-1.3V44.7h-.9a.1.1,0,0,1-.1-.1h-.1V44l1.1-.2.3-2.2h.9v2.4h2v.9h-2v4.2a.6.6,0,0,0,.1.4c0,.1.1.2.1.3h1.6l.4.6a2,2,0,0,1-.8.4Z"/><path class="cls-5" d="M111,31.4V28.7a3.9,3.9,0,0,1,.7-2.3c.5-.7,1.2-1.2,1.7-1.9a2,2,0,0,0,.3-1.1V21.3a.5.5,0,0,0-.4-.5c-.3,0-.4.2-.4.5v1.6h-1.8V21.5c0-1.6.2-2.5,2.2-2.5s2.2.7,2.2,2.3v2.1a3.6,3.6,0,0,1-.6,2,12.2,12.2,0,0,0-1.5,1.7,1.8,1.8,0,0,0-.5,1.2v1.5h2.6v1.6Z"/><path class="cls-5" d="M120.8,29.1a2.1,2.1,0,0,1-2.3,2.4,2,2,0,0,1-2.2-2.3v-.9h1.8v.9c0,.4.1.6.4.6s.4-.2.4-.6V25.9c0-.4-.2-.6-.4-.6h-.3a.3.3,0,0,0-.1.2h-1.8l.2-6.5h4v1.6h-2.4v3.5h.1a1,1,0,0,1,.5-.4h.6c.8,0,1.6.4,1.6,2Z"/></svg>