<svg id="Layer_1" data-name="Layer 1" xmlns="http://www.w3.org/2000/svg" viewBox="0 0 278 60"><defs><style>.cls-1,.cls-2{fill:#004c88;}.cls-1{fill-rule:evenodd;}</style></defs><g id="Layer_1-2" data-name="Layer 1-2"><path class="cls-1" d="M43,7.5A22.5,22.5,0,1,1,20.5,30,22.6,22.6,0,0,1,43,7.5Zm-3.1,42,9.6-16.7H43l3.3-5.6H61.5l-3.2,5.6H52.8L43,49.7a19.7,19.7,0,1,0,0-39.4H40.7L31,27.2H43l-3.2,5.6H24.5L37,11.3a19.7,19.7,0,0,0,2.9,38.2Z"/><path class="cls-2" d="M77.1,41.3H90.5l.8-3.6H82.4l4.1-19H81.9L77.1,41.3Zm16.4-19h6.4l-4.1,19h4.7l4.1-19H111l.7-3.6H94.3l-.8,3.6Zm15.9,19h4.7l4.7-22.6h-4.7l-4.7,22.6Zm9.4,0h4.3l4.2-18.7h0l1.8,18.7h4.4l10.2-18.7h.1l-4.3,18.7h4.8l4.8-22.6h-7.5L132.7,35h-.1l-1.5-16.3h-7.5l-4.8,22.6Zm30.3,0h4.3L157,24.6h-4.4l-3.5,16.7Zm4.2-19.7h4.3l.9-4.2h-4.3l-.9,4.2Zm4.8,19.7h4.3l1.8-8.4c.5-2.5,1.6-5.3,4.6-5.3a2.3,2.3,0,0,1,2.4,2.3,12.9,12.9,0,0,1-.5,3.5l-1.6,7.9h4.3l1.8-8.1a18.4,18.4,0,0,0,.5-3.6c0-3.3-2.1-5.3-5.4-5.3a7,7,0,0,0-4.7,2h-.1l.3-1.7h-4.2c-.1.6-.3,1.4-.5,2.4l-3,14.3Zm36-24.3L192,26.6a6.6,6.6,0,0,0-5.1-2.4c-5.7,0-8.4,5.6-8.4,10.6s1.8,6.9,5.7,6.9a6.2,6.2,0,0,0,5.5-2.9h0l-.4,2.5h4.1c.1-.8.3-2.3.6-3.7L198.5,17Zm-6.5,10.6c2.2,0,3.1,2,3.1,4s-1.9,6.7-5,6.7-2.7-2.2-2.7-3.9,1.5-6.8,4.6-6.8Zm11.1.2h3.1l-1.2,5.6a18.5,18.5,0,0,0-.6,3.9c0,3.2,2.1,4.4,5,4.4a10,10,0,0,0,2.4-.4l.7-3.4a4.4,4.4,0,0,1-2.1.4,1.5,1.5,0,0,1-1.6-1.6,7.6,7.6,0,0,1,.1-1.6l1.6-7.3H210l.7-3.2h-3.9l1.1-4.9-4.7,1.5-.7,3.4h-3.2l-.6,3.2Zm11.5,13.5h4.4l1.5-7.5c.6-2.7,2.1-5.4,5.1-5.4l1.7.2.9-4.2-1.7-.2c-2,0-4.1,1.8-4.9,3.6h0l.5-3.2h-4.1c-.1.8-.3,1.6-.4,2.3l-3,14.4Zm28.9-7a22.1,22.1,0,0,0,.4-3.7c0-4.2-2.7-6.3-6.8-6.3s-9.5,4.9-9.5,10.1,3.2,7.3,8,7.3a19,19,0,0,0,5.3-.9l.6-3.5a12,12,0,0,1-5.2,1.2c-2.9,0-4.6-1.1-4.6-4.2Zm-11.2-3c.8-2.3,2-3.9,4.7-3.9s2.7,1,2.7,2.8v1.1Zm29.2,3a22.1,22.1,0,0,0,.4-3.7c0-4.2-2.7-6.3-6.8-6.3s-9.5,4.9-9.5,10.1,3.2,7.3,8,7.3a19,19,0,0,0,5.3-.9l.6-3.5a12,12,0,0,1-5.2,1.2c-2.9,0-4.6-1.1-4.6-4.2Zm-11.2-3c.8-2.3,2-3.9,4.7-3.9s2.7,1,2.7,2.8v1.1Z"/></g></svg>