<svg id="Layer_1" data-name="Layer 1" xmlns="http://www.w3.org/2000/svg" viewBox="0 0 278 60"><defs><style>.cls-1{fill:#003a78;}.cls-2{fill:#2eabe1;}.cls-3{fill:#2fabe1;}.cls-4{fill:#2fabe0;}.cls-5{fill:#2eabe0;}.cls-6{fill:#30ace0;}.cls-7{fill:#30abe1;}.cls-8{fill:#2eaae0;}</style></defs><path class="cls-1" d="M32.8,41.8l-5.7,5.7c-.5.6-.7.5-1.3,0L9,30.7c-.5-.5-.5-.7,0-1.2l16.9-17c.5-.5.8-.4,1.2.1,2,1.9,3.8,4,5.9,5.8s2,1.7,3,2.5l1.2,1.2,6.6,6.6c1.1,1.1,1.1,1.4,0,2.5s-4.3,4.7-6.8,6.7a8.5,8.5,0,0,1-3.8-3.7,20.8,20.8,0,0,1,3.2-3.4c.5-.5.6-.8,0-1.3l-3.2-3.2L29,22.1l-1.8-1.8c-.4-.5-.9-.5-1.4,0-3,3.1-6,6.1-9.1,9.1a.8.8,0,0,0,0,1.4c3.1,3,6.1,6.1,9.1,9.1.6.6,1,.5,1.5,0a7.7,7.7,0,0,1,1.9-1.7A7.8,7.8,0,0,1,32.8,41.8Z"/><path class="cls-1" d="M58.8,18.7l6.3-6.2L82.5,29.8c.5.5.7.7.1,1.3L64.9,48.8l-6.6-7c-1.4-.6-2.2-1.9-3.3-2.8l-1-1.1-6.2-6.2c-1-1-1-1.3,0-2.3s4.2-4.5,6.6-6.5c.9-.1,1.3.6,1.8,1.1s1.7,1.3,2,2.3-1.6,2-2.5,3-1.2,1.2,0,2.4L57.9,34l4.2,4.2,2.2,2.1a.8.8,0,0,0,1.4,0l9.1-9.1c.5-.5.4-.9,0-1.4l-9-9c-.7-.6-1.1-.5-1.7.1s-1,1.3-1.9,1.5S59.3,20.5,58.8,18.7Z"/><path class="cls-2" d="M94.3,38.2H87.2a.8.8,0,0,0,.1-.3c2.3-.7,2.1-.2,2.1-2.9s-.1-7.6,0-11.4c0-1.2-.3-1.9-1.5-1.9s-.7,0-.7-.5.5-.3.7-.3h9.3a3.3,3.3,0,0,1,3.4,2.4,4,4,0,0,1-.9,4.4,10.6,10.6,0,0,1-3.5,1.8c2.3,2.9,4.4,5.9,6.8,8.6a3.5,3.5,0,0,1-4.4-1.2l-5.1-6.6c-.2-.4-.8-.7-.5-1.2s.7-.2,1.1-.2c2.2-.1,3.8-1.2,4.3-2.9a3,3,0,0,0-1.7-3.7,5.9,5.9,0,0,0-1.9-.5c-2.4-.3-2.9.1-2.9,2.6s0,7.3-.1,10.9c0,1.5.3,2.4,1.9,2.4h.4C94.1,37.9,94.1,37.9,94.3,38.2Z"/><path class="cls-3" d="M177.7,38.2h-6.9c0-.2,0-.3.1-.3,2.1-.7,2.1-.7,2.1-3s-.1-7.4,0-11.1c0-1.3-.2-2.1-1.6-2.2s-.6,0-.6-.4.4-.3.6-.3H181a3.5,3.5,0,0,1,3.2,2.3,4.2,4.2,0,0,1-.7,4.2,4.8,4.8,0,0,1-2.2,1.5c-1.5.7-1.5.7-.5,2l4,5.1a5.8,5.8,0,0,0,2.1,2c-2,.8-3.5.4-4.6-1l-5.1-6.6c-.3-.4-.8-.7-.6-1.2s.8-.3,1.2-.3,3.3-.8,4-2.7a2.9,2.9,0,0,0-1.8-4l-1.6-.4c-2.4-.4-3,.2-3,2.6s.1,7.4,0,11.1c0,1.4.4,2.1,1.8,2.2l.5.2Z"/><path class="cls-4" d="M228.7,20.9c-.3.7-.6.6-.9.6s-1.3.7-1.3,1.7V36.9c0,.6.3,1.4-.3,1.6a2.1,2.1,0,0,1-2.4-.7c-1.8-2.4-3.7-4.7-5.6-7L212.7,24c-.5.3-.3.7-.3,1,0,3.5.1,7,0,10.6-.1,1.3.3,2.1,1.7,2.1a.5.5,0,0,1,.4.2.8.8,0,0,0,.1.3H209c.1-.3.1-.4.2-.4,2.1-.5,2.1-.5,2.1-2.7,0-3.8-.1-7.7,0-11.5,0-1.2-.4-1.8-1.6-2s-.7.1-.6-.4.4-.3.7-.3h2.7c.8-.1,1.1.4,1.5.9l10.2,12.7c.2.3.3.7.9.9V24c.1-1.3,0-2.4-1.8-2.4a.5.5,0,0,1-.5-.4.5.5,0,0,1,.3-.3Z"/><path class="cls-5" d="M106.4,28.9c0-1.7-.1-3.4,0-5.1s-.2-2.1-1.6-2.1-.7,0-.7-.4.4-.4.7-.4h5.6c.2,0,.6-.1.6.3s-.3.4-.6.4-1.9.9-1.8,2.3c.1,3.1,0,6.2,0,9.3a3.3,3.3,0,0,0,2.5,3.5,7.6,7.6,0,0,0,6.1-.3,2.8,2.8,0,0,0,1.6-2.7V23.5c.1-1.2-.4-1.8-1.5-1.9s-.7.1-.6-.4.4-.3.6-.3h4.5c.3,0,.6,0,.7.3s-.4.4-.7.4-1.7.7-1.6,1.9v9.1c0,3.6-1.1,5.1-4.6,5.8a11.3,11.3,0,0,1-6.8-.5,3.7,3.7,0,0,1-2.4-3.8Z"/><path class="cls-6" d="M150.9,26.8v5h-.3c-.1-1.7-1.2-1.9-2.6-1.8s-2.7-.3-3.3.3-.3,2.2-.3,3.4-.6,2.8.3,3.6,2.3.1,3.4.2a9.6,9.6,0,0,1,1.7,0,2.3,2.3,0,0,0,2.7-2c0-.3,0-.7.5-.6s.2.5.2.7c-.2,2.8-.2,2.8-3,2.8h-9c-.5,0-.9.2-1.3-.2,2-1.1,2-1.1,2-3.6V23.6c.1-1.2-.3-1.9-1.6-2s-.8.1-.7-.4.5-.3.8-.3h11.4c.7,0,1.1.2.9,1a4.9,4.9,0,0,1-.1,1.2c-.1.4,0,.9-.4.9s-.4-.5-.4-.8-.5-1.3-1.4-1.3h-5.1c-.7,0-1,.1-.9.8s0,3.5-.1,5.3.4.9,1,.9h2C149.9,28.9,149.9,28.9,150.9,26.8Z"/><path class="cls-2" d="M248.9,38.6c-4.6.1-8.5-2.5-9.6-6.2a9.1,9.1,0,0,1,8.6-11.8,21.9,21.9,0,0,1,6.2.7c.9.2,1.3.5.9,1.5a6.1,6.1,0,0,1-.3,1.1c-.1.3,0,.8-.5.8s-.4-.5-.4-.9-.6-1.2-1.2-1.4c-2.9-1.2-5.8-1.3-8.3.7a7.7,7.7,0,0,0-2.4,8.3,7.5,7.5,0,0,0,5.9,5.8,8.9,8.9,0,0,0,6.2-.7c.3-.1.8-.7,1.1-.2s-.1,1-.6,1.2A12,12,0,0,1,248.9,38.6Z"/><path class="cls-2" d="M267.4,24.3c-1.2-2.5-2.1-3.2-4.4-2.9a4.1,4.1,0,0,0-3.5,4.7,1.9,1.9,0,0,0,1.6,1.7l4.5.8c4.2.6,4.6,4.9,2.7,7.2s-6.7,3.5-10.3,2.1c-.4-.2-.4-.5-.4-.9a3.7,3.7,0,0,1,.1-1.1c.1-.5-.4-1.3.4-1.4s.2.8.6,1.1.1.2.1.3,3.5,2,5.8,1.2a3.6,3.6,0,0,0,2.5-4,3,3,0,0,0-2.6-2.6l-3.4-.5c-3.6-.5-5-4.2-2.8-7.1s4.6-2.8,7.4-2.2S268.6,21.7,267.4,24.3Z"/><path class="cls-5" d="M155.4,24.4c-.1-.3-.2-.4-.2-.5-.4-3-.4-3,2.6-3h10.3c1.1,0,1.4.4,1.2,1.4a5,5,0,0,1-.6,2.4c-.1-.3-.2-.4-.2-.6-.2-2.1-.2-2.1-2.4-2.1s-2.8,0-2.8,2.9.1,7.2,0,10.8c-.1,1.5.4,2.2,1.9,2.1s.3.2.5.5h-7c0-.2,0-.4.1-.4,2.2-.6,2.2-.6,2.2-2.8,0-3.9-.1-7.8,0-11.7,0-1.2-.4-1.6-1.5-1.4h-.3a12.2,12.2,0,0,0-2.7.1C155.2,22.2,156.2,23.6,155.4,24.4Z"/><path class="cls-3" d="M130.8,38.3h-5.5c-.3,0-.7.2-.8-.2s.3-.4.6-.5a1.6,1.6,0,0,0,1.2-1.8c-.1-4.2-.1-8.3,0-12.5,0-1.2-.7-1.5-1.6-1.6s-.8-.1-.7-.5.5-.3.8-.3h5.4c.3,0,.7-.2.8.3s-.4.4-.7.4-1.8.8-1.8,2.3q.1,5.9,0,11.7c0,1.4.5,1.9,1.8,1.8s2.4,0,3.6,0a3,3,0,0,0,3-2c.1-.3.1-.7.6-.6s.2.5.2.8c-.1,2.7-.1,2.7-2.8,2.7Z"/><path class="cls-7" d="M229.8,38.3l.3-.5c2.3-.9,2.3-.9,2.3-3.5s-.1-7.2,0-10.8c0-1.2-.3-1.9-1.6-1.9s-.6,0-.6-.4.3-.3.6-.3h5.7c.2,0,.6,0,.6.4s-.3.3-.6.3-1.7.9-1.7,2.1c.1,4,.1,7.9,0,11.8,0,1.3.2,2.1,1.6,2.2s.6,0,.6.4-.3.2-.4.2Z"/><path class="cls-8" d="M54.2,37.8a2.4,2.4,0,0,0-1.3.9c-2.2,2.1-4.3,4.2-6.4,6.4-.7.7-1.2.7-1.9,0-2.1-2.2-4.2-4.3-6.4-6.4a2.7,2.7,0,0,0-1.3-1c-1.1-1.2-2.3-2.4-3.5-3.5l-3.6-3.5c-.5-.5-.5-.7,0-1.2L33.3,26h0a37.8,37.8,0,0,0-4-4h-.6c-2.4,2.3-4.8,4.7-7.1,7.1a.9.9,0,0,0,0,1.5c2.5,2.6,4.9,5.2,7.7,7.6,1.1,1.2,2.3,2.4,3.5,3.5s.8.7,1.2,1L44.5,53.3c.9,1,1.4.9,2.3,0L58.3,41.8A51.4,51.4,0,0,0,54.2,37.8Z"/><path class="cls-8" d="M69.1,28.7,63.4,23a2.6,2.6,0,0,0-1.1-.7,19.9,19.9,0,0,1-3.5-3.6c-.5-.1-.8-.5-1.2-.9L46.3,6.5c-.4-.4-.7-.9-1.4-.2C41,10.4,37,14.4,33,18.4a35.9,35.9,0,0,0,3.9,3.9c.8.1,1.1-.5,1.5-.9l6.1-6.2c.8-.8,1.3-.8,2.1,0l6.6,6.6c.4.5.7,1,1.3,1.2a16.7,16.7,0,0,1,3.6,3.4l3.3,3.2c.5.4.4.7,0,1.1l-3.6,3.4h0a51.4,51.4,0,0,0,4.1,4c.5.1.8-.3,1.1-.7l6.1-6C70.2,30.3,70.2,29.9,69.1,28.7Z"/><path class="cls-2" d="M199.1,20.7c-3.5-.5-7-.1-9.2,3.2a10,10,0,0,0-.6,10.4c1.6,3.3,4.6,4.4,8.1,4.4,5.2,0,9-3.4,9.4-8.1S204.3,21.4,199.1,20.7ZM201,36.5a5.6,5.6,0,0,1-7.9-.8,9.7,9.7,0,0,1-1.2-10.9,6.2,6.2,0,0,1,10.6-.7,9.7,9.7,0,0,1,1.8,6A9,9,0,0,1,201,36.5Z"/></svg>